<svg width="26" height="26" viewBox="0 0 26 26" fill="none" xmlns="http://www.w3.org/2000/svg">
  <path d="M22.4453 0H5.63672C3.95657 0 2.58984 1.36673 2.58984 3.04688V4.92578H0.558594V6.95703H2.58984V12.0352H0.558594V14.0664H2.58984V19.1445H0.558594V21.1758H2.58984V22.9531C2.58984 24.6333 3.95657 26 5.63672 26H22.4453C24.1255 26 25.4922 24.6333 25.4922 22.9531V3.04688C25.4922 1.36673 24.1255 0 22.4453 0ZM23.4609 22.9531C23.4609 23.5131 23.0053 23.9688 22.4453 23.9688H5.63672C5.07674 23.9688 4.62109 23.5131 4.62109 22.9531V21.1758H5.07812V21.1732C5.09499 21.174 5.11165 21.1758 5.12891 21.1758C5.68988 21.1758 6.14453 20.7211 6.14453 20.1602C6.14453 19.5992 5.68988 19.1445 5.12891 19.1445C5.11165 19.1445 5.09499 19.1463 5.07812 19.1471V19.1445H4.62109V14.0664H5.07812V14.0638C5.09499 14.0646 5.11165 14.0664 5.12891 14.0664C5.68988 14.0664 6.14453 13.6118 6.14453 13.0508C6.14453 12.4898 5.68988 12.0352 5.12891 12.0352C5.11165 12.0352 5.09499 12.0369 5.07812 12.0377V12.0352H4.62109V6.95703H5.07812V6.95445C5.09499 6.95525 5.11165 6.95703 5.12891 6.95703C5.68988 6.95703 6.14453 6.50238 6.14453 5.94141C6.14453 5.38043 5.68988 4.92578 5.12891 4.92578C5.11165 4.92578 5.09499 4.92757 5.07812 4.92836V4.92578H4.62109V3.04688C4.62109 2.48689 5.07674 2.03125 5.63672 2.03125H22.4453C23.0053 2.03125 23.4609 2.48689 23.4609 3.04688V22.9531ZM14.7297 5.9416C12.8274 5.9541 11.0445 6.70808 9.70953 8.0647C8.37494 9.42111 7.64992 11.2165 7.66837 13.1204C7.68642 15.0122 8.43346 16.7834 9.77182 18.1079C11.1092 19.4314 12.8865 20.1604 14.7773 20.1602H14.7807C16.1661 20.1596 17.5088 19.7599 18.6641 19.0045L17.5523 17.3045C16.7283 17.8435 15.7696 18.1285 14.7797 18.1289C14.7787 18.1289 14.7781 18.1289 14.7773 18.1289C12.0038 18.1289 9.726 15.8737 9.69942 13.1008C9.68633 11.7408 10.2041 10.4582 11.1574 9.48935C12.1109 8.52034 13.3842 7.98178 14.743 7.97285C16.0856 7.96155 17.3598 8.4892 18.3287 9.45146C19.3131 10.4298 19.8553 11.7257 19.8553 13.1012V13.1855C19.8553 13.8393 19.3274 14.3711 18.6786 14.3711C18.0285 14.3711 17.5193 13.8502 17.5193 13.1855V9.59766H15.4881V9.67839C15.2155 9.5929 14.9255 9.54688 14.6248 9.54688C13.0288 9.54688 11.7303 10.8454 11.7303 12.4414V13.5586C11.7303 15.1546 13.0288 16.4531 14.6248 16.4531C15.4012 16.4531 16.1064 16.1455 16.6269 15.6462C17.1821 16.1175 17.8978 16.4023 18.6788 16.4023C20.4476 16.4023 21.8867 14.9592 21.8867 13.1855V13.1012C21.8867 11.1808 21.1315 9.37291 19.7603 8.01054C18.4048 6.66405 16.6205 5.92911 14.7297 5.9416ZM15.4883 13.5586C15.4883 14.0347 15.1011 14.4219 14.625 14.4219C14.1489 14.4219 13.7617 14.0347 13.7617 13.5586V12.4414C13.7617 11.9653 14.1489 11.5781 14.625 11.5781C15.1011 11.5781 15.4883 11.9653 15.4883 12.4414V13.5586Z" fill="#424770"/>
</svg>
