<svg width="56" height="56" viewBox="0 0 56 56" fill="none" xmlns="http://www.w3.org/2000/svg">
  <path d="M53.375 1.75H42V0.875C42 0.391781 41.6082 0 41.125 0H14.875C14.3918 0 14 0.391781 14 0.875V1.75H2.625C1.17523 1.75 0 2.92523 0 4.375V42.875C0 43.3582 0.391781 43.75 0.875 43.75H20.8075L19.4075 50.75H17.5C17.0168 50.75 16.625 51.1418 16.625 51.625V54.25H14.875V56H41.125V54.25H39.375V51.625C39.375 51.1418 38.9832 50.75 38.5 50.75H36.5911L35.1911 43.75H55.125C55.6082 43.75 56 43.3582 56 42.875V4.375C56 2.92523 54.8248 1.75 53.375 1.75ZM15.75 1.75H40.25V19.25H37.625V7.875C37.625 7.39178 37.2332 7 36.75 7C35.7835 7 35 6.21655 35 5.25C35 4.76678 34.6082 4.375 34.125 4.375H21.875C21.3918 4.375 21 4.76678 21 5.25C21 6.21655 20.2165 7 19.25 7C18.7668 7 18.375 7.39178 18.375 7.875V19.25H15.75V1.75ZM28 11.375C24.5361 11.375 21.5429 13.388 20.125 16.3078V8.63888C21.3565 8.31819 22.3182 7.35645 22.6389 6.125H33.3611C33.6818 7.35645 34.6435 8.31819 35.875 8.63888V16.3078C34.4571 13.388 31.4639 11.375 28 11.375ZM34.9436 19.25H21.0564C21.4873 15.7972 24.4305 13.125 28 13.125C31.5695 13.125 34.5127 15.7972 34.9436 19.25ZM35.875 52.5H37.625V54.25H18.375V52.5H20.125H35.875ZM21.1925 50.75L22.5912 43.75H33.4075L34.8075 50.75H21.1925ZM54.25 42H1.75V34.125H54.25V42ZM54.25 32.375H51.625V7C51.625 6.51678 51.2332 6.125 50.75 6.125H43.75V7.875H49.875V32.375H6.125V7.875H12.25V6.125H5.25C4.76678 6.125 4.375 6.51678 4.375 7V32.375H1.75V4.375C1.75 3.89178 2.14178 3.5 2.625 3.5H14V19.25H11.375V21H14.875H19.25H36.75H41.125H44.625V19.25H42V3.5H53.375C53.8582 3.5 54.25 3.89178 54.25 4.375V32.375Z" fill="#424770"/>
  <path d="M28 35C26.5502 35 25.375 36.1752 25.375 37.625C25.375 39.0748 26.5502 40.25 28 40.25C29.4498 40.25 30.625 39.0748 30.625 37.625C30.625 36.1752 29.4498 35 28 35ZM28 38.5C27.5168 38.5 27.125 38.1082 27.125 37.625C27.125 37.1418 27.5168 36.75 28 36.75C28.4832 36.75 28.875 37.1418 28.875 37.625C28.875 38.1082 28.4832 38.5 28 38.5Z" fill="#424770"/>
  <path d="M10.4999 28.875V26.25H8.74992V28.875C8.74938 28.8992 8.74938 28.9233 8.74992 28.9475C8.76994 29.8939 9.5535 30.645 10.4999 30.625H14.8749V28.875H10.4999Z" fill="#424770"/>
  <path d="M19.25 3.5H17.5V5.25H19.25V3.5Z" fill="#424770"/>
  <path d="M38.5 3.5H36.75V5.25H38.5V3.5Z" fill="#424770"/>
</svg>
