<svg width="56" height="57" viewBox="0 0 56 57" fill="none" xmlns="http://www.w3.org/2000/svg">
  <path d="M54.3083 50.3978C57.3926 44.8837 56.1377 37.9111 51.3333 33.8678V26.1253H52.5C53.1443 26.1253 53.6667 25.5936 53.6667 24.9378V21.3753H54.8334C55.4777 21.3737 55.9988 20.8408 55.9973 20.185C55.9964 19.7979 55.8102 19.4355 55.4983 19.2141L28.665 0.214027C28.2651 -0.0684126 27.7349 -0.0684126 27.335 0.214027L0.501703 19.2141C-0.0266875 19.5895 -0.155969 20.3297 0.212734 20.8675C0.430391 21.1849 0.786406 21.3744 1.1667 21.3753H2.33341V24.9378C2.33341 25.5936 2.85578 26.1253 3.50011 26.1253H4.66681V45.1253H3.5C2.85567 45.1253 2.3333 45.6571 2.3333 46.3129V50.0891C0.938328 50.5911 0.00415625 51.9317 0 53.4378V55.8127C0 56.4686 0.522375 57.0003 1.1667 57.0003H54.8334C55.4777 57.0003 56.0001 56.4686 56.0001 55.8127V53.4378C55.9965 52.1932 55.3552 51.0408 54.3083 50.3978ZM51.3333 23.7503H42V21.3754H51.3333V23.7503ZM49 26.1253V32.3121C47.5459 31.552 45.9615 31.0842 44.3333 30.9347V26.1253H49ZM28 2.63653L51.1117 19.0003H4.8883L28 2.63653ZM15.1667 45.1253H14V26.1253H15.1667C15.811 26.1253 16.3334 25.5936 16.3334 24.9378V21.3753H21V24.9378C21 25.5936 21.5224 26.1253 22.1667 26.1253H23.3334V45.1253H22.1667C21.5224 45.1253 21 45.6571 21 46.3129V49.8754H16.3333V46.3129C16.3333 45.6569 15.811 45.1253 15.1667 45.1253ZM23.3333 47.5003H30.835C31.0647 48.3209 31.3733 49.1165 31.7567 49.8753H23.3334V47.5003H23.3333ZM25.6667 45.1253V26.1253H30.3334V45.1253H25.6667ZM31.5 23.7503H23.3333V21.3754H32.6666V23.7503H31.5ZM32.6667 26.1253H33.8334C34.4777 26.1253 35.0001 25.5936 35.0001 24.9378V21.3753H39.6668V24.9378C39.6668 25.5936 40.1892 26.1253 40.8335 26.1253H42V30.9347C38.2446 31.2863 34.8312 33.3014 32.6667 36.4446V26.1253ZM4.6667 21.3753H14V23.7502H4.6667V21.3753ZM11.6667 26.1253V45.1253H7V26.1253H11.6667ZM4.6667 47.5003H14V49.8753H4.6667V47.5003ZM2.3333 54.6253V53.4378C2.3333 52.7819 2.85567 52.2502 3.5 52.2502H33.2733C34.0095 53.1531 34.8609 53.9519 35.805 54.6252H2.3333V54.6253ZM53.6667 54.6253H50.5167C51.4255 53.9793 52.249 53.217 52.9667 52.3572C53.3893 52.5449 53.6636 52.9685 53.6667 53.4379V54.6253ZM43.1667 54.6253C37.3677 54.6253 32.6667 49.8403 32.6667 43.9378C32.6667 38.0353 37.3677 33.2503 43.1667 33.2503C48.9657 33.2503 53.6667 38.0353 53.6667 43.9378C53.6667 49.8403 48.9657 54.6253 43.1667 54.6253Z" fill="#424770"/>
  <path d="M41.58 14.4748L28.7467 4.97485L27.3117 6.8986L37.24 14.2493H16.3333V16.6242H40.8333C41.3592 16.6504 41.8373 16.3147 42 15.8049C42.1581 15.3157 41.9885 14.7785 41.58 14.4748Z" fill="#424770"/>
  <path d="M45.5 37.9992H44.3333V35.6243H42V37.9992H40.8333C39.5446 37.9992 38.5 39.0625 38.5 40.3742V42.7492C38.5 44.0608 39.5446 45.1241 40.8333 45.1241H45.5V47.4991H40.8333V46.3115H38.5V47.4991C38.5 48.8108 39.5446 49.8741 40.8333 49.8741H42V52.249H44.3333V49.8741H45.5C46.7887 49.8741 47.8333 48.8108 47.8333 47.4991V45.1241C47.8333 43.8125 46.7887 42.7492 45.5 42.7492H40.8333V40.3742H45.5V41.5617H47.8333V40.3742C47.8333 39.0625 46.7887 37.9992 45.5 37.9992Z" fill="#424770"/>
</svg>
