<svg width="28" height="24" viewBox="0 0 28 24" fill="none" xmlns="http://www.w3.org/2000/svg">
  <path fill-rule="evenodd" clip-rule="evenodd" d="M0.699951 2.49998C0.699951 1.99607 0.900129 1.5128 1.25645 1.15648C1.61277 0.800162 2.09604 0.599983 2.59995 0.599983H25.4C25.9039 0.599983 26.3871 0.800162 26.7435 1.15648C27.0998 1.5128 27.3 1.99607 27.3 2.49998C27.3 3.0039 27.0998 3.48717 26.7435 3.84349C26.3871 4.19981 25.9039 4.39998 25.4 4.39998H2.59995C2.09604 4.39998 1.61277 4.19981 1.25645 3.84349C0.900129 3.48717 0.699951 3.0039 0.699951 2.49998Z" fill="#424770"/>
  <path fill-rule="evenodd" clip-rule="evenodd" d="M0.699951 12C0.699951 11.4961 0.900129 11.0128 1.25645 10.6565C1.61277 10.3002 2.09604 10.1 2.59995 10.1H25.4C25.9039 10.1 26.3871 10.3002 26.7435 10.6565C27.0998 11.0128 27.3 11.4961 27.3 12C27.3 12.5039 27.0998 12.9872 26.7435 13.3435C26.3871 13.6998 25.9039 13.9 25.4 13.9H2.59995C2.09604 13.9 1.61277 13.6998 1.25645 13.3435C0.900129 12.9872 0.699951 12.5039 0.699951 12Z" fill="#424770"/>
  <path fill-rule="evenodd" clip-rule="evenodd" d="M0.699951 21.5C0.699951 20.9961 0.900129 20.5128 1.25645 20.1565C1.61277 19.8002 2.09604 19.6 2.59995 19.6H14C14.5039 19.6 14.9871 19.8002 15.3435 20.1565C15.6998 20.5128 15.9 20.9961 15.9 21.5C15.9 22.0039 15.6998 22.4872 15.3435 22.8435C14.9871 23.1998 14.5039 23.4 14 23.4H2.59995C2.09604 23.4 1.61277 23.1998 1.25645 22.8435C0.900129 22.4872 0.699951 22.0039 0.699951 21.5Z" fill="#424770"/>
</svg>
