<svg width="17" height="17" viewBox="0 0 17 17" fill="none" xmlns="http://www.w3.org/2000/svg">
  <path d="M15.9103 4.14104H12.8217L12.1635 2.38581C12.0678 2.13059 11.8238 1.96155 11.5513 1.96155H5.44872C5.17615 1.96155 4.93218 2.13059 4.8365 2.38581L4.1783 4.14104H1.08974C0.4879 4.14104 0 4.62894 0 5.23078V13.9487C0 14.5506 0.4879 15.0385 1.08974 15.0385H15.9103C16.5121 15.0385 17 14.5506 17 13.9487V5.23078C17 4.62894 16.5121 4.14104 15.9103 4.14104ZM8.5 5.44873C10.7834 5.44873 12.641 7.30639 12.641 9.58975C12.641 11.8731 10.7834 13.7308 8.5 13.7308C6.21664 13.7308 4.35897 11.8731 4.35897 9.58975C4.35897 7.30639 6.21664 5.44873 8.5 5.44873Z" fill="#424770"/>
  <path d="M5.6665 9.58974C5.6665 11.152 6.93754 12.4231 8.49984 12.4231C10.0621 12.4231 11.3332 11.152 11.3332 9.58974C11.3332 8.02744 10.0621 6.75641 8.49984 6.75641C6.93754 6.75641 5.6665 8.02744 5.6665 9.58974Z" fill="#424770"/>
</svg>
