<svg width="25" height="25" viewBox="0 0 25 25" fill="none" xmlns="http://www.w3.org/2000/svg">
  <g clip-path="url(#clip0_2_19235)">
    <path opacity="0.3" d="M12.5 25.0001C19.4036 25.0001 25.0001 19.4036 25.0001 12.5C25.0001 5.59645 19.4036 0 12.5 0C5.59645 0 0 5.59645 0 12.5C0 19.4036 5.59645 25.0001 12.5 25.0001Z" fill="#219653"/>
    <path d="M19.2965 8.90639L11.1715 17.8127C10.6246 18.4377 9.68711 18.4377 9.14021 17.8127L5.7027 13.9845C5.23397 13.4376 5.23397 12.5783 5.78081 12.0314C6.32771 11.5627 7.18706 11.5627 7.73396 12.1095L10.1558 14.8439L17.2652 7.10952C17.8121 6.56262 18.6715 6.48451 19.2184 7.03141C19.7652 7.50014 19.7652 8.43766 19.2965 8.90639Z" fill="#219653"/>
  </g>
  <defs>
    <clipPath id="clip0_2_19235">
      <rect width="25" height="25" fill="white"/>
    </clipPath>
  </defs>
</svg>
