<svg width="16" height="16" viewBox="0 0 16 16" fill="none" xmlns="http://www.w3.org/2000/svg">
  <path d="M15.5355 0.4645C14.9162 -0.154833 13.8838 -0.154833 13.2645 0.4645L8 5.72901L2.73549 0.4645C2.11615 -0.154833 1.08383 -0.154833 0.4645 0.4645C-0.154833 1.08383 -0.154833 2.11615 0.4645 2.73549L5.72901 8L0.4645 13.2645C-0.154833 13.8838 -0.154833 14.9162 0.4645 15.5355C1.08383 16.1548 2.11615 16.1548 2.73549 15.5355L8 10.271L13.2645 15.5355C13.8838 16.1548 14.9162 16.1548 15.5355 15.5355C16.1548 14.9162 16.1548 13.8838 15.5355 13.2645L10.271 8L15.5355 2.73549C16.1548 2.11615 16.1548 1.08391 15.5355 0.4645Z" fill="black"/>
</svg>
