<svg width="24" height="24" viewBox="0 0 24 24" fill="none" xmlns="http://www.w3.org/2000/svg">
  <g clip-path="url(#clip0_341_342)">
    <path d="M4.11573 4.11573L4.2218 4.2218L4.11573 4.11573C2.01002 6.22149 0.85 9.02201 0.85 12C0.85 14.978 2.01002 17.7785 4.11573 19.8843C6.22149 21.99 9.02202 23.15 12 23.15C14.978 23.15 17.7785 21.99 19.8843 19.8843C21.99 17.7785 23.15 14.978 23.15 12C23.15 9.02201 21.99 6.22149 19.8843 4.11573L19.7782 4.2218L19.8843 4.11573C17.7785 2.00997 14.978 0.85 12 0.85C9.02202 0.85 6.22149 2.00997 4.11573 4.11573ZM12 21.5609C6.72821 21.5609 2.43906 17.2718 2.43906 12C2.43906 6.72821 6.72821 2.43906 12 2.43906C17.2718 2.43906 21.5609 6.72821 21.5609 12C21.5609 17.2718 17.2718 21.5609 12 21.5609Z" fill="#424770" stroke="#424770" stroke-width="0.3"/>
    <g filter="url(#filter0_d_341_342)">
      <path d="M12.6906 11.3553H11.3098C10.5232 11.3553 9.88326 10.7154 9.88326 9.92881C9.88326 9.14218 10.5232 8.50225 11.3098 8.50225H14.0713C14.4272 8.50225 14.7158 8.21367 14.7158 7.85771C14.7158 7.50176 14.4272 7.21318 14.0713 7.21318H12.6447V5.78662C12.6447 5.43067 12.3562 5.14209 12.0002 5.14209C11.6442 5.14209 11.3557 5.43067 11.3557 5.78662V7.21318H11.3099C9.81245 7.21318 8.59424 8.43143 8.59424 9.92881C8.59424 11.4262 9.81249 12.6444 11.3099 12.6444H12.6906C13.4772 12.6444 14.1171 13.2844 14.1171 14.071C14.1171 14.8575 13.4772 15.4975 12.6906 15.4975H9.92915C9.5732 15.4975 9.28462 15.7861 9.28462 16.142C9.28462 16.498 9.5732 16.7866 9.92915 16.7866H11.3557V18.2132C11.3557 18.5691 11.6442 18.8577 12.0002 18.8577C12.3562 18.8577 12.6447 18.5691 12.6447 18.2132V16.7866H12.6906C14.188 16.7866 15.4062 15.5683 15.4062 14.071C15.4062 12.5736 14.188 11.3553 12.6906 11.3553Z" fill="#424770"/>
      <path d="M12.4947 7.21318V7.36318H12.6447H14.0713C14.3444 7.36318 14.5658 7.5846 14.5658 7.85771C14.5658 8.13083 14.3444 8.35225 14.0713 8.35225H11.3098C10.4404 8.35225 9.73326 9.05933 9.73326 9.92881C9.73326 10.7982 10.4404 11.5053 11.3098 11.5053H12.6906C14.1051 11.5053 15.2562 12.6564 15.2562 14.071C15.2562 15.4855 14.1051 16.6366 12.6906 16.6366H12.6447H12.4947V16.7866V18.2132C12.4947 18.4863 12.2733 18.7077 12.0002 18.7077C11.7271 18.7077 11.5057 18.4863 11.5057 18.2132V16.7866V16.6366H11.3557H9.92915C9.65604 16.6366 9.43462 16.4152 9.43462 16.142C9.43462 15.8689 9.65604 15.6475 9.92915 15.6475H12.6906C13.5601 15.6475 14.2671 14.9404 14.2671 14.071C14.2671 13.2015 13.5601 12.4944 12.6906 12.4944H11.3099C9.89533 12.4944 8.74424 11.3433 8.74424 9.92881C8.74424 8.51427 9.89529 7.36318 11.3099 7.36318H11.3557H11.5057V7.21318V5.78662C11.5057 5.51351 11.7271 5.29209 12.0002 5.29209C12.2733 5.29209 12.4947 5.51351 12.4947 5.78662V7.21318Z" stroke="#424770" stroke-width="0.3"/>
    </g>
  </g>
  <defs>
    <filter id="filter0_d_341_342" x="4.59424" y="5.14209" width="14.812" height="21.7156" filterUnits="userSpaceOnUse" color-interpolation-filters="sRGB">
      <feFlood flood-opacity="0" result="BackgroundImageFix"/>
      <feColorMatrix in="SourceAlpha" type="matrix" values="0 0 0 0 0 0 0 0 0 0 0 0 0 0 0 0 0 0 127 0" result="hardAlpha"/>
      <feOffset dy="4"/>
      <feGaussianBlur stdDeviation="2"/>
      <feColorMatrix type="matrix" values="0 0 0 0 0 0 0 0 0 0 0 0 0 0 0 0 0 0 0.25 0"/>
      <feBlend mode="normal" in2="BackgroundImageFix" result="effect1_dropShadow_341_342"/>
      <feBlend mode="normal" in="SourceGraphic" in2="effect1_dropShadow_341_342" result="shape"/>
    </filter>
    <clipPath id="clip0_341_342">
      <rect width="24" height="24" fill="white"/>
    </clipPath>
  </defs>
</svg>
