<svg width="20" height="14" viewBox="0 0 20 14" fill="none" xmlns="http://www.w3.org/2000/svg">
  <path fill-rule="evenodd" clip-rule="evenodd" d="M18.8948 6.54362C17.1994 3.23568 13.843 0.997559 9.99983 0.997559C6.15666 0.997559 2.79933 3.23724 1.10487 6.54393C0.959834 6.83083 0.959834 7.1696 1.10487 7.4565C2.80027 10.7644 6.15666 13.0026 9.99983 13.0026C13.843 13.0026 17.2003 10.7629 18.8948 7.45619C19.0398 7.16929 19.0398 6.83052 18.8948 6.54362ZM9.99983 11.5019C7.51351 11.5019 5.49795 9.48637 5.49795 7.00005C5.49795 4.51374 7.51351 2.49818 9.99983 2.49818C12.4861 2.49818 14.5017 4.51374 14.5017 7.00005C14.5023 8.1942 14.0282 9.33961 13.1838 10.184C12.3394 11.0284 11.194 11.5025 9.99983 11.5019ZM9.20856 4.11729C9.46579 4.04241 9.73195 4.00255 9.99983 3.9988C11.2842 3.99578 12.4274 4.81216 12.8414 6.02796C13.2554 7.24375 12.848 8.58817 11.8287 9.36958C10.8094 10.151 9.40528 10.1953 8.3387 9.47983C7.27212 8.76431 6.78063 7.44829 7.11706 6.20879C7.71251 6.64695 8.53872 6.58445 9.06147 6.0617C9.58422 5.53895 9.64672 4.71274 9.20856 4.11729Z" fill="#424770"/>
</svg>
