<svg width="18" height="22" viewBox="0 0 18 22" fill="none" xmlns="http://www.w3.org/2000/svg">
  <path d="M11.1668 0.166626H2.50016C1.92553 0.166626 1.37443 0.394899 0.968098 0.801228C0.561769 1.20756 0.333496 1.75866 0.333496 2.33329V19.6666C0.333496 20.2413 0.561769 20.7924 0.968098 21.1987C1.37443 21.605 1.92553 21.8333 2.50016 21.8333H15.5002C16.0748 21.8333 16.6259 21.605 17.0322 21.1987C17.4386 20.7924 17.6668 20.2413 17.6668 19.6666V6.66663L11.1668 0.166626ZM6.28966 15.5391C5.95491 15.8533 5.46091 15.9941 4.88566 15.9941C4.77412 15.9953 4.66263 15.9888 4.552 15.9746V17.5195H3.5835V13.2555C4.02057 13.1903 4.46221 13.1606 4.90408 13.1666C5.50749 13.1666 5.9365 13.2815 6.22575 13.5122C6.50091 13.731 6.68724 14.0896 6.68724 14.5121C6.68616 14.9368 6.54533 15.2954 6.28966 15.5391ZM10.4139 17.007C9.95891 17.3851 9.26666 17.565 8.42058 17.565C7.91358 17.565 7.55499 17.5325 7.31124 17.5V13.2565C7.74848 13.1927 8.18998 13.1627 8.63183 13.1666C9.45191 13.1666 9.98491 13.314 10.4009 13.6281C10.8505 13.9618 11.1322 14.4937 11.1322 15.2575C11.1322 16.084 10.8299 16.655 10.4139 17.007ZM14.4168 14.0008H12.7572V14.9877H14.3085V15.7829H12.7572V17.5205H11.7757V13.1991H14.4168V14.0008ZM11.1668 7.74996H10.0835V2.33329L15.5002 7.74996H11.1668Z" fill="#424770"/>
</svg>
