<svg width="56" height="56" viewBox="0 0 56 56" fill="none" xmlns="http://www.w3.org/2000/svg">
  <path d="M31.7237 48.7832H26.1504C25.8603 48.7832 25.5821 48.8984 25.377 49.1036C25.1719 49.3087 25.0566 49.5869 25.0566 49.877C25.0566 50.167 25.1719 50.4452 25.377 50.6504C25.5821 50.8555 25.8603 50.9707 26.1504 50.9707H31.7237C32.0138 50.9707 32.292 50.8555 32.4971 50.6504C32.7022 50.4452 32.8175 50.167 32.8175 49.877C32.8175 49.5869 32.7022 49.3087 32.4971 49.1036C32.292 48.8984 32.0138 48.7832 31.7237 48.7832Z" fill="#424770"/>
  <path d="M50.7504 18.1562C48.5451 18.1562 46.6388 18.7735 45.2379 19.9409C45.1087 20.0487 44.9768 20.168 44.8441 20.2983V3.5C44.842 2.74646 44.5416 2.02442 44.0088 1.49159C43.476 0.958756 42.7539 0.658443 42.0004 0.65625H15.7504C14.9969 0.658443 14.2748 0.958756 13.742 1.49159C13.2092 2.02442 12.9088 2.74646 12.9066 3.5V6.40937L12.7711 6.27386C11.9096 5.41232 10.7411 4.92831 9.5227 4.92831C8.30429 4.92831 7.1358 5.41232 6.27426 6.27386C5.41272 7.1354 4.92871 8.3039 4.92871 9.5223C4.92871 10.7407 5.41272 11.9092 6.27426 12.7707L11.0074 17.5038C10.2413 17.7272 9.54659 18.1463 8.99165 18.7197C8.4367 19.2931 8.04063 20.0012 7.84242 20.7741C7.64421 21.5471 7.65068 22.3584 7.86121 23.1281C8.07174 23.8978 8.47906 24.5994 9.04309 25.1639L11.7355 27.8563C10.8806 27.9603 10.0722 28.3026 9.40256 28.844C8.7329 29.3854 8.22894 30.1042 7.94821 30.9183C7.66747 31.7324 7.62126 32.6091 7.81486 33.4482C8.00845 34.2873 8.43405 35.0551 9.04309 35.6639L10.8602 37.4814C10.0054 37.5854 9.197 37.9277 8.52734 38.4691C7.85768 39.0105 7.35372 39.7293 7.07299 40.5434C6.79225 41.3575 6.74604 42.2342 6.93964 43.0733C7.13323 43.9124 7.55884 44.6802 8.16787 45.289L12.9066 50.0281V52.5C12.9075 53.254 13.2074 53.9768 13.7405 54.5099C14.2736 55.043 14.9964 55.3429 15.7504 55.3438H36.7504C37.0405 55.3438 37.3187 55.2285 37.5238 55.0234C37.7289 54.8183 37.8441 54.5401 37.8441 54.25V43.75C37.8463 42.8335 38.0608 41.9299 38.4707 41.1101C38.8806 40.2904 39.4747 39.5767 40.2066 39.025L44.4066 35.875C44.5418 35.7725 44.6516 35.6403 44.7275 35.4885C44.8033 35.3368 44.8433 35.1696 44.8441 35V26.25C44.8441 21.8939 47.5031 20.679 49.6566 20.4094V54.25C49.6566 54.5401 49.7719 54.8183 49.977 55.0234C50.1821 55.2285 50.4603 55.3438 50.7504 55.3438C51.0405 55.3438 51.3187 55.2285 51.5238 55.0234C51.7289 54.8183 51.8441 54.5401 51.8441 54.25V19.25C51.8441 18.9599 51.7289 18.6817 51.5238 18.4766C51.3187 18.2715 51.0405 18.1562 50.7504 18.1562ZM15.7504 2.84375H42.0004C42.1744 2.84392 42.3412 2.91312 42.4642 3.03615C42.5873 3.15919 42.6565 3.326 42.6566 3.5V6.77644H15.0941V3.5C15.0943 3.326 15.1635 3.15919 15.2866 3.03615C15.4096 2.91312 15.5764 2.84392 15.7504 2.84375ZM7.11579 9.52219C7.09391 7.40337 9.74199 6.3082 11.2244 7.82042L12.9066 9.50283V16.3098L7.82071 11.2238C7.59653 11.0009 7.41879 10.7357 7.29779 10.4436C7.17679 10.1515 7.11493 9.83835 7.11579 9.52219ZM10.5896 20.2142C11.4854 19.2807 13.097 19.2807 13.9926 20.2142L18.9424 25.164C21.116 27.4984 17.8648 30.7414 15.5394 28.567L10.5896 23.6172C10.1391 23.1656 9.88608 22.5537 9.88608 21.9157C9.88608 21.2778 10.1391 20.6659 10.5896 20.2142ZM20.4892 23.6172L19.3004 22.4283C19.5266 20.2538 20.503 18.2258 22.0618 16.6928C23.6206 15.1598 25.6646 14.2175 27.8426 14.0276C30.0207 13.8377 32.1969 14.4122 33.9974 15.6523C35.798 16.8925 37.1105 18.7209 37.7096 20.8235C38.3087 22.9261 38.157 25.1717 37.2804 27.1746C36.4039 29.1775 34.8573 30.8127 32.9063 31.7994C30.9552 32.786 28.7216 33.0624 26.5889 32.5813C24.4561 32.1001 22.5575 30.8913 21.2191 29.1625C21.7235 28.2864 21.9253 27.2686 21.7934 26.2663C21.6614 25.264 21.2031 24.333 20.4892 23.6172ZM10.5896 30.7143C11.4854 29.7807 13.097 29.7807 13.9926 30.7143L18.9424 35.664C21.116 37.9984 17.8648 41.2414 15.5394 39.067L10.5896 34.1172C10.1391 33.6656 9.88608 33.0537 9.88608 32.4157C9.88608 31.7778 10.1391 31.1659 10.5896 30.7143ZM9.71465 40.3393C10.6104 39.4057 12.222 39.4057 13.1176 40.3393L18.0674 45.289C20.241 47.6234 16.9898 50.8664 14.6644 48.692L9.71465 43.7422C9.2641 43.2906 9.01108 42.6787 9.01108 42.0407C9.01108 41.4028 9.2641 40.7909 9.71465 40.3393ZM15.0941 52.5V51.4062C15.5076 51.5248 15.9357 51.5849 16.3659 51.5849C17.0021 51.5851 17.6315 51.453 18.214 51.197C18.7966 50.9411 19.3195 50.5667 19.7496 50.0979C20.1797 49.629 20.5077 49.0758 20.7126 48.4734C20.9175 47.871 20.9949 47.2326 20.9399 46.5987H35.6566V53.1562H15.7504C15.5764 53.1561 15.4096 53.0869 15.2866 52.9638C15.1635 52.8408 15.0943 52.674 15.0941 52.5Z" fill="#424770"/>
  <g clip-path="url(#clip0_2_19716)">
    <path opacity="0.3" d="M28.8985 33.3737C34.3656 33.3737 38.7975 28.9418 38.7975 23.4747C38.7975 18.0076 34.3656 13.5757 28.8985 13.5757C23.4314 13.5757 18.9995 18.0076 18.9995 23.4747C18.9995 28.9418 23.4314 33.3737 28.8985 33.3737Z" fill="#424770"/>
    <path d="M33.9474 20.629L27.5131 27.6821C27.08 28.177 26.3376 28.177 25.9045 27.6821L23.1822 24.6505C22.811 24.2174 22.811 23.5369 23.2441 23.1038C23.6772 22.7326 24.3577 22.7326 24.7908 23.1656L26.7088 25.331L32.3388 19.206C32.7719 18.7729 33.4525 18.7111 33.8856 19.1442C34.3186 19.5154 34.3186 20.2578 33.9474 20.629Z" fill="#424770"/>
  </g>
  <defs>
    <clipPath id="clip0_2_19716">
      <rect width="19.798" height="19.798" fill="white" transform="translate(18.6665 13.5757)"/>
    </clipPath>
  </defs>
</svg>
