<svg width="56" height="56" viewBox="0 0 56 56" fill="none" xmlns="http://www.w3.org/2000/svg">
  <path d="M31.7232 48.7834H26.1499C25.8598 48.7834 25.5816 48.8987 25.3765 49.1038C25.1714 49.3089 25.0562 49.5871 25.0562 49.8772C25.0562 50.1673 25.1714 50.4455 25.3765 50.6506C25.5816 50.8557 25.8598 50.9709 26.1499 50.9709H31.7232C32.0133 50.9709 32.2915 50.8557 32.4966 50.6506C32.7017 50.4455 32.817 50.1673 32.817 49.8772C32.817 49.5871 32.7017 49.3089 32.4966 49.1038C32.2915 48.8987 32.0133 48.7834 31.7232 48.7834Z" fill="#424770"/>
  <path d="M50.7499 18.1562C48.5446 18.1562 46.6383 18.7735 45.2374 19.9409C45.1082 20.0487 44.9763 20.168 44.8437 20.2983V3.5C44.8415 2.74646 44.5412 2.02442 44.0083 1.49159C43.4755 0.958756 42.7534 0.658443 41.9999 0.65625H15.7499C14.9964 0.658443 14.2743 0.958756 13.7415 1.49159C13.2087 2.02442 12.9084 2.74646 12.9062 3.5V6.40937L12.7706 6.27386C11.9091 5.41232 10.7406 4.92831 9.52221 4.92831C8.30381 4.92831 7.13531 5.41232 6.27377 6.27386C5.41223 7.1354 4.92822 8.3039 4.92822 9.5223C4.92822 10.7407 5.41223 11.9092 6.27377 12.7707L11.0069 17.5038C10.2408 17.7272 9.5461 18.1463 8.99116 18.7197C8.43621 19.2931 8.04014 20.0012 7.84193 20.7741C7.64372 21.5471 7.65019 22.3584 7.86072 23.1281C8.07125 23.8978 8.47857 24.5994 9.0426 25.1639L11.735 27.8563C10.8801 27.9603 10.0717 28.3026 9.40207 28.844C8.73241 29.3854 8.22845 30.1042 7.94772 30.9183C7.66698 31.7324 7.62077 32.6091 7.81437 33.4482C8.00797 34.2873 8.43357 35.0551 9.0426 35.6639L10.8598 37.4814C10.0049 37.5854 9.19652 37.9277 8.52685 38.4691C7.85719 39.0105 7.35324 39.7293 7.0725 40.5434C6.79176 41.3575 6.74555 42.2342 6.93915 43.0733C7.13275 43.9124 7.55835 44.6802 8.16738 45.289L12.9062 50.0281V52.5C12.907 53.254 13.2069 53.9768 13.74 54.5099C14.2731 55.043 14.996 55.3429 15.7499 55.3438H36.7499C37.04 55.3438 37.3182 55.2285 37.5233 55.0234C37.7284 54.8183 37.8437 54.5401 37.8437 54.25V43.75C37.8459 42.8335 38.0603 41.9299 38.4702 41.1101C38.8801 40.2904 39.4743 39.5767 40.2062 39.025L44.4062 35.875C44.5413 35.7725 44.6511 35.6403 44.727 35.4885C44.8029 35.3368 44.8428 35.1696 44.8437 35V26.25C44.8437 21.8939 47.5026 20.679 49.6562 20.4094V54.25C49.6562 54.5401 49.7714 54.8183 49.9765 55.0234C50.1816 55.2285 50.4598 55.3438 50.7499 55.3438C51.04 55.3438 51.3182 55.2285 51.5233 55.0234C51.7284 54.8183 51.8437 54.5401 51.8437 54.25V19.25C51.8437 18.9599 51.7284 18.6817 51.5233 18.4766C51.3182 18.2715 51.04 18.1562 50.7499 18.1562ZM15.7499 2.84375H41.9999C42.1739 2.84392 42.3407 2.91312 42.4638 3.03615C42.5868 3.15919 42.656 3.326 42.6562 3.5V6.77644H15.0937V3.5C15.0938 3.326 15.163 3.15919 15.2861 3.03615C15.4091 2.91312 15.5759 2.84392 15.7499 2.84375ZM7.1153 9.52219C7.09343 7.40337 9.7415 6.3082 11.2239 7.82042L12.9062 9.50283V16.3098L7.82022 11.2238C7.59604 11.0009 7.4183 10.7357 7.2973 10.4436C7.1763 10.1515 7.11444 9.83835 7.1153 9.52219ZM10.5892 20.2142C11.4849 19.2807 13.0965 19.2807 13.9921 20.2142L18.9419 25.164C21.1155 27.4984 17.8643 30.7414 15.5389 28.567L10.5892 23.6172C10.1386 23.1656 9.88559 22.5537 9.88559 21.9157C9.88559 21.2778 10.1386 20.6659 10.5892 20.2142ZM10.5892 30.7143C11.4849 29.7807 13.0965 29.7807 13.9921 30.7143L18.9419 35.664C21.1155 37.9984 17.8643 41.2414 15.5389 39.067L10.5892 34.1172C10.1386 33.6656 9.88559 33.0537 9.88559 32.4157C9.88559 31.7778 10.1386 31.1659 10.5892 30.7143ZM9.71416 40.3393C10.6099 39.4057 12.2215 39.4057 13.1171 40.3393L18.0669 45.289C20.2405 47.6234 16.9893 50.8664 14.6639 48.692L9.71416 43.7422C9.26361 43.2906 9.01059 42.6787 9.01059 42.0407C9.01059 41.4028 9.26361 40.7909 9.71416 40.3393ZM15.0937 52.5V51.4062C15.5072 51.5248 15.9352 51.5849 16.3654 51.5849C17.0016 51.5851 17.631 51.453 18.2136 51.197C18.7961 50.9411 19.319 50.5667 19.7491 50.0979C20.1793 49.629 20.5072 49.0758 20.7121 48.4734C20.917 47.871 20.9944 47.2326 20.9394 46.5987H35.6562V53.1562H15.7499C15.5759 53.1561 15.4091 53.0869 15.2861 52.9638C15.163 52.8408 15.0938 52.674 15.0937 52.5Z" fill="#424770"/>
</svg>
