<svg width="56" height="56" viewBox="0 0 56 56" fill="none" xmlns="http://www.w3.org/2000/svg">
  <path d="M43.1621 11.6667V5.8333C43.1583 2.6133 40.5489 0.00382813 37.3288 0H13.9955C10.7754 0.00382813 8.16605 2.6133 8.16211 5.8333V50.1666C8.16594 53.3867 10.7754 55.9961 13.9954 55.9999H37.3287C40.5488 55.9961 43.1582 53.3866 43.162 50.1666V44.3333H40.8287V50.1666C40.8287 52.0996 39.2617 53.6666 37.3287 53.6666H13.9955C12.0625 53.6666 10.4955 52.0996 10.4955 50.1666V5.8333C10.4955 3.90031 12.0625 2.3333 13.9955 2.3333H37.3288C39.2618 2.3333 40.8288 3.90031 40.8288 5.8333V11.6666H43.1621V11.6667Z" fill="white"/>
  <path d="M41.9953 7H9.32861V9.3333H41.9953V7Z" fill="white"/>
  <path d="M41.9953 46.6667H9.32861V49H41.9953V46.6667Z" fill="white"/>
  <path d="M47.7389 26.2724C47.3363 22.7564 45.7173 19.4917 43.1622 17.0431C37.1117 11.245 27.5064 11.4497 21.7083 17.5002H18.6621V19.8335H22.2216C22.5533 19.8335 22.8694 19.6922 23.0908 19.445C23.4114 19.0861 23.752 18.7456 24.1107 18.4251C29.3989 13.7002 37.5162 14.1568 42.2411 19.445C46.966 24.7331 46.5093 32.8504 41.2211 37.5753C35.933 42.3002 27.8157 41.8436 23.0908 36.5554C22.8695 36.3082 22.5535 36.1669 22.2216 36.1669H18.6621V38.5002H21.7118C24.5755 41.4801 28.5293 43.1651 32.6621 43.1669C33.235 43.1668 33.8074 43.1342 34.3766 43.0694C42.7048 42.1209 48.6873 34.6006 47.7389 26.2724Z" fill="white"/>
  <path d="M34.9956 22.1667H30.3289C29.0402 22.1667 27.9956 23.2114 27.9956 24.5V26.8333C27.9956 28.122 29.0402 29.1666 30.3289 29.1666H32.6622V26.8333H30.3289V24.5H34.9956V25.6668H37.3289V24.5C37.3289 23.2114 36.2843 22.1667 34.9956 22.1667Z" fill="white"/>
  <path d="M34.9956 26.8333H32.6623V29.1666H34.9956V31.5H30.3289V30.3333H27.9956V31.5C27.9956 32.7886 29.0402 33.8333 30.3289 33.8333H34.9956C36.2843 33.8333 37.3289 32.7886 37.3289 31.5V29.1667C37.3289 27.878 36.2843 26.8333 34.9956 26.8333Z" fill="white"/>
  <path d="M33.8289 19.8333H31.4956V23.3333H33.8289V19.8333Z" fill="white"/>
  <path d="M33.8289 32.6667H31.4956V36.1667H33.8289V32.6667Z" fill="white"/>
  <path d="M24.4954 26.8333H18.6621V29.1665H24.4954V26.8333Z" fill="white"/>
  <path d="M16.3289 26.8333H13.9956V29.1665H16.3289V26.8333Z" fill="white"/>
  <path d="M16.3289 36.1667H13.9956V38.5H16.3289V36.1667Z" fill="white"/>
  <path d="M16.3289 17.5H13.9956V19.8333H16.3289V17.5Z" fill="white"/>
  <path d="M22.1623 22.1667H13.9956V24.5H22.1623V22.1667Z" fill="white"/>
  <path d="M22.1623 31.5H13.9956V33.8333H22.1623V31.5Z" fill="white"/>
</svg>
