<svg width="10" height="20" viewBox="0 0 10 20" fill="none" xmlns="http://www.w3.org/2000/svg">
  <path d="M8.75016 5.00016V14.5835C8.75016 16.4252 7.2585 17.9168 5.41683 17.9168C3.57516 17.9168 2.0835 16.4252 2.0835 14.5835V4.16683C2.0835 3.61429 2.30299 3.08439 2.69369 2.69369C3.08439 2.30299 3.6143 2.0835 4.16683 2.0835C4.71936 2.0835 5.24927 2.30299 5.63997 2.69369C6.03067 3.08439 6.25016 3.61429 6.25016 4.16683V12.9168C6.25016 13.3752 5.87516 13.7502 5.41683 13.7502C4.9585 13.7502 4.5835 13.3752 4.5835 12.9168V5.00016H3.3335V12.9168C3.3335 13.4694 3.55299 13.9993 3.94369 14.39C4.33439 14.7807 4.8643 15.0002 5.41683 15.0002C5.96936 15.0002 6.49927 14.7807 6.88997 14.39C7.28067 13.9993 7.50016 13.4694 7.50016 12.9168V4.16683C7.50016 2.32516 6.0085 0.833496 4.16683 0.833496C2.32516 0.833496 0.833496 2.32516 0.833496 4.16683V14.5835C0.833496 17.1168 2.8835 19.1668 5.41683 19.1668C7.95016 19.1668 10.0002 17.1168 10.0002 14.5835V5.00016H8.75016Z" fill="#1A203D"/>
</svg>
