<svg width="20" height="20" viewBox="0 0 20 20" fill="none" xmlns="http://www.w3.org/2000/svg">
  <path d="M9.0835 15.5002H10.9168V13.6668H9.0835V15.5002ZM10.0002 0.833496C4.94016 0.833496 0.833496 4.94016 0.833496 10.0002C0.833496 15.0602 4.94016 19.1668 10.0002 19.1668C15.0602 19.1668 19.1668 15.0602 19.1668 10.0002C19.1668 4.94016 15.0602 0.833496 10.0002 0.833496ZM10.0002 17.3335C5.95766 17.3335 2.66683 14.0427 2.66683 10.0002C2.66683 5.95766 5.95766 2.66683 10.0002 2.66683C14.0427 2.66683 17.3335 5.95766 17.3335 10.0002C17.3335 14.0427 14.0427 17.3335 10.0002 17.3335ZM10.0002 4.50016C7.97433 4.50016 6.3335 6.141 6.3335 8.16683H8.16683C8.16683 7.1585 8.99183 6.3335 10.0002 6.3335C11.0085 6.3335 11.8335 7.1585 11.8335 8.16683C11.8335 10.0002 9.0835 9.771 9.0835 12.7502H10.9168C10.9168 10.6877 13.6668 10.4585 13.6668 8.16683C13.6668 6.141 12.026 4.50016 10.0002 4.50016Z" fill="#424770"/>
</svg>
