<svg width="54" height="54" viewBox="0 0 54 54" fill="none" xmlns="http://www.w3.org/2000/svg">
  <path d="M27.0001 -0.000102997C41.9118 -0.000102997 54.0001 12.0882 54.0001 26.9999C54.0001 41.9117 41.9118 54 27.0001 54C12.0883 54 0 41.9117 0 26.9999C0 12.0882 12.0883 -0.000102997 27.0001 -0.000102997Z" fill="#ffeaeb"/>
  <path d="M39.3187 14.6813C38.3062 13.6689 36.6186 13.6689 35.6062 14.6813L27 23.2875L18.3937 14.6813C17.3813 13.6689 15.6937 13.6689 14.6812 14.6813C13.6688 15.6938 13.6688 17.3814 14.6812 18.3938L23.2874 27.0001L14.6812 35.6063C13.6688 36.6187 13.6688 38.3063 14.6812 39.3188C15.6937 40.3312 17.3813 40.3312 18.3937 39.3188L27 30.7126L35.6062 39.3188C36.6186 40.3312 38.3062 40.3312 39.3187 39.3188C40.3311 38.3063 40.3311 36.6187 39.3187 35.6063L30.7125 27.0001L39.3187 18.3938C40.3311 17.3814 40.3311 15.6939 39.3187 14.6813Z" fill="#ffcbcc"/>
</svg>
