<svg width="9" height="11" viewBox="0 0 9 11" fill="none" xmlns="http://www.w3.org/2000/svg">
  <path d="M0.450703 9.016H1.4797V10.5H2.9427V9.016H6.2397V7.84H2.9427V6.755H5.2737C5.3297 6.755 5.4277 6.75267 5.5677 6.748C5.71237 6.74333 5.87104 6.727 6.0437 6.699C6.8837 6.573 7.51604 6.237 7.9407 5.691C8.36537 5.14033 8.5777 4.45667 8.5777 3.64C8.5777 2.83267 8.3677 2.13733 7.9477 1.554C7.5277 0.966 6.89304 0.606666 6.0437 0.476C5.87104 0.452666 5.71237 0.438666 5.5677 0.433999C5.4277 0.424666 5.3297 0.42 5.2737 0.42H1.4797V5.488H0.450703V6.755H1.4797V7.84H0.450703V9.016ZM5.2177 1.799C5.27837 1.799 5.36937 1.80367 5.4907 1.813C5.61204 1.81767 5.73104 1.83633 5.8477 1.869C6.30037 1.97167 6.62004 2.20267 6.8067 2.562C6.99337 2.91667 7.0867 3.28767 7.0867 3.675C7.0867 4.095 6.98637 4.46367 6.7857 4.781C6.5897 5.09367 6.27704 5.30367 5.8477 5.411C5.7217 5.44367 5.6027 5.46467 5.4907 5.474C5.38337 5.48333 5.29237 5.488 5.2177 5.488H2.9427V1.799H5.2177Z" fill="#404040"/>
</svg>
