<svg width="20" height="20" viewBox="0 0 20 20" fill="none" xmlns="http://www.w3.org/2000/svg">
  <path d="M10.0005 12.3154C11.279 12.3154 12.3154 11.279 12.3154 10.0005C12.3154 8.72198 11.279 7.68555 10.0005 7.68555C8.72198 7.68555 7.68555 8.72198 7.68555 10.0005C7.68555 11.279 8.72198 12.3154 10.0005 12.3154Z" stroke="#424770" stroke-width="2" stroke-linecap="round" stroke-linejoin="round"/>
  <path d="M15.7105 12.3152C15.6077 12.548 15.5771 12.8061 15.6225 13.0565C15.6679 13.3068 15.7872 13.5378 15.9651 13.7196L16.0114 13.7659C16.1549 13.9092 16.2687 14.0794 16.3464 14.2668C16.424 14.4542 16.464 14.655 16.464 14.8578C16.464 15.0606 16.424 15.2614 16.3464 15.4488C16.2687 15.6361 16.1549 15.8063 16.0114 15.9497C15.8681 16.0932 15.6979 16.207 15.5105 16.2846C15.3232 16.3623 15.1223 16.4023 14.9195 16.4023C14.7167 16.4023 14.5159 16.3623 14.3285 16.2846C14.1412 16.207 13.971 16.0932 13.8276 15.9497L13.7813 15.9034C13.5995 15.7255 13.3685 15.6061 13.1182 15.5608C12.8679 15.5154 12.6097 15.546 12.377 15.6487C12.1487 15.7465 11.9541 15.909 11.817 16.116C11.6799 16.323 11.6063 16.5656 11.6053 16.8139V16.9451C11.6053 17.3544 11.4427 17.7469 11.1533 18.0364C10.8639 18.3258 10.4713 18.4884 10.062 18.4884C9.65272 18.4884 9.26017 18.3258 8.97075 18.0364C8.68133 17.7469 8.51873 17.3544 8.51873 16.9451V16.8756C8.51276 16.6202 8.43009 16.3725 8.28146 16.1647C8.13284 15.9569 7.92513 15.7986 7.68536 15.7105C7.45262 15.6077 7.19444 15.5771 6.94413 15.6225C6.69381 15.6679 6.46283 15.7872 6.28097 15.9651L6.23467 16.0114C6.09134 16.1549 5.92113 16.2687 5.73378 16.3464C5.54643 16.424 5.3456 16.464 5.14279 16.464C4.93998 16.464 4.73916 16.424 4.5518 16.3464C4.36445 16.2687 4.19425 16.1549 4.05092 16.0114C3.90743 15.8681 3.79359 15.6979 3.71593 15.5105C3.63826 15.3232 3.59829 15.1223 3.59829 14.9195C3.59829 14.7167 3.63826 14.5159 3.71593 14.3285C3.79359 14.1412 3.90743 13.971 4.05092 13.8276L4.09721 13.7813C4.27511 13.5995 4.39444 13.3685 4.43983 13.1182C4.48521 12.8679 4.45457 12.6097 4.35186 12.377C4.25404 12.1487 4.09162 11.9541 3.8846 11.817C3.67757 11.6799 3.43498 11.6063 3.18667 11.6053H3.05549C2.64619 11.6053 2.25365 11.4427 1.96423 11.1533C1.6748 10.8639 1.51221 10.4713 1.51221 10.062C1.51221 9.65272 1.6748 9.26017 1.96423 8.97075C2.25365 8.68133 2.64619 8.51873 3.05549 8.51873H3.12494C3.38035 8.51276 3.62806 8.43009 3.83586 8.28146C4.04366 8.13284 4.20194 7.92513 4.29012 7.68536C4.39284 7.45262 4.42348 7.19444 4.3781 6.94413C4.33271 6.69381 4.21337 6.46283 4.03548 6.28097L3.98918 6.23467C3.84569 6.09134 3.73186 5.92113 3.6542 5.73378C3.57653 5.54643 3.53656 5.3456 3.53656 5.14279C3.53656 4.93998 3.57653 4.73916 3.6542 4.5518C3.73186 4.36445 3.84569 4.19425 3.98918 4.05092C4.13251 3.90743 4.30272 3.79359 4.49007 3.71593C4.67743 3.63826 4.87825 3.59829 5.08106 3.59829C5.28387 3.59829 5.48469 3.63826 5.67205 3.71593C5.8594 3.79359 6.02961 3.90743 6.17294 4.05092L6.21923 4.09721C6.40109 4.27511 6.63208 4.39444 6.88239 4.43983C7.13271 4.48521 7.39089 4.45457 7.62363 4.35186H7.68536C7.91359 4.25404 8.10823 4.09162 8.24533 3.8846C8.38244 3.67757 8.45601 3.43498 8.457 3.18667V3.05549C8.457 2.64619 8.6196 2.25365 8.90902 1.96423C9.19844 1.6748 9.59098 1.51221 10.0003 1.51221C10.4096 1.51221 10.8021 1.6748 11.0916 1.96423C11.381 2.25365 11.5436 2.64619 11.5436 3.05549V3.12494C11.5446 3.37325 11.6181 3.61584 11.7552 3.82287C11.8923 4.02989 12.087 4.19231 12.3152 4.29012C12.548 4.39284 12.8061 4.42348 13.0565 4.3781C13.3068 4.33271 13.5378 4.21337 13.7196 4.03548L13.7659 3.98918C13.9092 3.84569 14.0794 3.73186 14.2668 3.6542C14.4542 3.57653 14.655 3.53656 14.8578 3.53656C15.0606 3.53656 15.2614 3.57653 15.4488 3.6542C15.6361 3.73186 15.8063 3.84569 15.9497 3.98918C16.0932 4.13251 16.207 4.30272 16.2846 4.49007C16.3623 4.67743 16.4023 4.87825 16.4023 5.08106C16.4023 5.28387 16.3623 5.48469 16.2846 5.67205C16.207 5.8594 16.0932 6.02961 15.9497 6.17294L15.9034 6.21923C15.7255 6.40109 15.6061 6.63208 15.5608 6.88239C15.5154 7.13271 15.546 7.39089 15.6487 7.62363V7.68536C15.7465 7.91359 15.909 8.10823 16.116 8.24533C16.323 8.38244 16.5656 8.45601 16.8139 8.457H16.9451C17.3544 8.457 17.7469 8.6196 18.0364 8.90902C18.3258 9.19844 18.4884 9.59098 18.4884 10.0003C18.4884 10.4096 18.3258 10.8021 18.0364 11.0916C17.7469 11.381 17.3544 11.5436 16.9451 11.5436H16.8756C16.6273 11.5446 16.3847 11.6181 16.1777 11.7552C15.9707 11.8923 15.8083 12.087 15.7105 12.3152V12.3152Z" stroke="#424770" stroke-width="2" stroke-linecap="round" stroke-linejoin="round"/>
</svg>
