<svg width="22" height="26" viewBox="0 0 22 26" fill="none" xmlns="http://www.w3.org/2000/svg">
  <path d="M18.256 1.57422H10.467C9.94688 0.636353 8.94693 0 7.80078 0C6.65463 0 5.65468 0.636353 5.13457 1.57422H3.73828C2.05814 1.57422 0.691406 2.94095 0.691406 4.62109V22.9531C0.691406 24.6333 2.05814 26 3.73828 26H18.2562C19.9361 26 21.303 24.6333 21.303 22.9531V4.62109C21.3028 2.94095 19.9361 1.57422 18.256 1.57422ZM19.2716 22.9531C19.2716 23.5131 18.8159 23.9688 18.256 23.9688H3.73828C3.1783 23.9688 2.72266 23.5131 2.72266 22.9531V4.62109C2.72266 4.06111 3.1783 3.60547 3.73828 3.60547H8.81641V10.8672C8.81641 11.4272 8.36076 11.8828 7.80078 11.8828C7.2408 11.8828 6.78516 11.4272 6.78516 10.8672V5.99219H4.75391V10.8672C4.75391 12.5473 6.12064 13.9141 7.80078 13.9141C9.48093 13.9141 10.8477 12.5473 10.8477 10.8672V3.60547H18.2562C18.8161 3.60547 19.2718 4.06111 19.2718 4.62109V22.9531H19.2716ZM4.75391 19.9062H13.1328V21.9375H4.75391V19.9062ZM4.75391 15.8945H17.1953V17.9258H4.75391V15.8945ZM12.8281 11.9336H17.1953V13.9648H12.8281V11.9336ZM12.8281 7.92188H17.1953V9.95312H12.8281V7.92188Z" fill="#424770"/>
</svg>
