<?xml version="1.0" encoding="utf-8"?>
<!-- Generator: Adobe Illustrator 24.2.0, SVG Export Plug-In . SVG Version: 6.00 Build 0)  -->
<svg version="1.1" id="Layer_1" xmlns="http://www.w3.org/2000/svg" xmlns:xlink="http://www.w3.org/1999/xlink" x="0px" y="0px"
	 viewBox="0 0 512 512" style="enable-background:new 0 0 512 512;" xml:space="preserve">
<style type="text/css">
	.st0{fill:#FAB627;}
</style>
<g>
	<g>
		<path class="st0" d="M506.4,421.5L291.6,49.4c-15.8-27.4-55.3-27.4-71.1,0L5.6,421.5c-15.8,27.4,3.9,61.6,35.6,61.6h429.7
			C502.5,483.2,522.2,448.9,506.4,421.5z M274.8,385c0,10.4-8.4,18.8-18.8,18.8s-18.8-8.4-18.8-18.8v-11.2
			c0-10.4,8.4-18.8,18.8-18.8c10.4,0,18.8,8.4,18.8,18.8L274.8,385L274.8,385z M274.8,311.7c0,10.4-8.4,18.8-18.8,18.8
			s-18.8-8.4-18.8-18.8V203.8c0-10.4,8.4-18.8,18.8-18.8c10.4,0,18.8,8.4,18.8,18.8L274.8,311.7L274.8,311.7z"/>
	</g>
</g>
</svg>
