<svg xmlns="http://www.w3.org/2000/svg" x="0px" y="0px"
    width="148.98px" height="47.04px" viewBox="0 0 148.98 47.04"><defs><style>.a{fill:#fff;}.d{fill:#485fa0;}.c{fill:#d45743;}.b{fill:#fff;}</style></defs><title>MIR_SRO_color</title><path class="a" d="M214.3,231.92h0c.23-.39.44-.78.64-1.18,5.48-10.87,2.15-23.63-8.26-29.84a2.61,2.61,0,0,0-.28-.17l-.37-.21a13.67,13.67,0,0,1,1.55,3.66,13.26,13.26,0,0,1-1.31,10.07c-.11.19-.22.36-.33.54a15.94,15.94,0,0,1-5,5.15,11.48,11.48,0,0,0-2.89,2.64l-.1.18A9.68,9.68,0,0,0,201.52,236C206.11,238.61,211.62,236.48,214.3,231.92Z" transform="translate(-171.61 -197.35)"/><path class="d" d="M205.77,237.6a9,9,0,0,1-4.5-1.21,10.18,10.18,0,0,1-3.73-13.89l.11-.18a12.1,12.1,0,0,1,3-2.8,15.6,15.6,0,0,0,4.83-5l.32-.52a12.8,12.8,0,0,0,1.26-9.69,13.15,13.15,0,0,0-1.49-3.53l-1-1.62,2.32,1.31c10.44,6.23,14.07,19.34,8.44,30.49-.13.27-.27.53-.41.79h0l-.24.43A10.57,10.57,0,0,1,205.77,237.6Zm1.53-35.73a13.57,13.57,0,0,1,.75,2.17,13.73,13.73,0,0,1-1.36,10.46l-.33.54a16.45,16.45,0,0,1-5.1,5.3,11.16,11.16,0,0,0-2.78,2.53l-.07.13a9.16,9.16,0,0,0,3.36,12.52c4,2.3,9.1.79,11.85-3.44h0l.25-.42c.22-.38.42-.77.62-1.16C219.71,220.14,216.6,208,207.3,201.87Z" transform="translate(-171.61 -197.35)"/><path class="d" d="M192,197.47c-11.85,1.05-20.25,11-20.4,22.87,0,.1,0,.19,0,.29v.42a13.8,13.8,0,0,1,2.4-3.17,13.24,13.24,0,0,1,9.38-3.9,20.45,20.45,0,0,1,2.23.14,12.68,12.68,0,0,1,4.55,1.49,9.92,9.92,0,0,0,4.47,1.29h.26a9.69,9.69,0,0,0,9.67-9.67c0-5.31-5.24-9.82-10.53-9.87" transform="translate(-171.61 -197.35)"/><path class="c" d="M205.89,241l.43-.24.36-.21a13.69,13.69,0,0,1-3.94-.49,13.3,13.3,0,0,1-8.07-6.18,20.28,20.28,0,0,1-1-2,11.32,11.32,0,0,1-.94-4.43,11.25,11.25,0,0,0-1.18-4.8l-.11-.2a9.67,9.67,0,0,0-17.72,2.33,11.43,11.43,0,0,0,.88,7.95h0a.41.41,0,0,1,.05.09C181.07,243.72,195,246.94,205.89,241Z" transform="translate(-171.61 -197.35)"/><path class="b" d="M249.87,231.55h-.19c-.51,1-1,1.92-1.54,2.86s-1,1.9-1.55,2.87l-.61,1.1a3.84,3.84,0,0,1-6.71,0l-.63-1.14q-.78-1.45-1.56-2.85c-.52-.92-1-1.87-1.51-2.84h-.18v12.83h-8.61v-25.8a3.84,3.84,0,0,1,3.84-3.84h2.5a3.82,3.82,0,0,1,3.36,2l2.34,4.25c.61,1.16,1.24,2.32,1.88,3.49s1.27,2.33,1.88,3.48h.27c.61-1.19,1.23-2.36,1.85-3.53l1.84-3.48,2.24-4.18a3.85,3.85,0,0,1,3.38-2h2.61a3.84,3.84,0,0,1,3.84,3.84v25.8h-8.74Z" transform="translate(-171.61 -197.35)"/><path class="b" d="M272.36,230.59l3.09-5,5.85-9.27a3.35,3.35,0,0,1,2.83-1.57h3.68a3.36,3.36,0,0,1,3.35,3.36v26.28h-8.88V229.31h-.22l-2.87,4.47-6.11,9.12c-.92,1.34-.52,1.43-2.79,1.48h-7.13V218.1a3.36,3.36,0,0,1,3.35-3.36h2.23a3.34,3.34,0,0,1,3.34,3.35v12.5Z" transform="translate(-171.61 -197.35)"/><path class="b" d="M319.75,220.25a8.34,8.34,0,0,0-2.27-3.09,9.39,9.39,0,0,0-3.46-1.82,15.06,15.06,0,0,0-4.33-.6H298.45a2.74,2.74,0,0,0-2.74,2.74v26.9h9V237.6c0-.81,0-12,0-12.79a2.73,2.73,0,0,1,2.73-2.73h.36a8.31,8.31,0,0,1,1.21.09,3.62,3.62,0,0,1,1.14.36,2.18,2.18,0,0,1,.84.81,2.71,2.71,0,0,1,.32,1.4,3.16,3.16,0,0,1-.3,1.51,1.93,1.93,0,0,1-.79.83,3.44,3.44,0,0,1-1.16.37c-.44.06-1.89.09-2.35.09h-.27v7.34h3a14.66,14.66,0,0,0,4.48-.66,10.11,10.11,0,0,0,3.58-2,8.83,8.83,0,0,0,2.34-3.21,12.05,12.05,0,0,0,0-8.79Z" transform="translate(-171.61 -197.35)"/><path class="b" d="M229.92,198a1.9,1.9,0,0,0-1.37.49,1.79,1.79,0,0,0-.5,1.35,1.83,1.83,0,0,0,.48,1.37,1.93,1.93,0,0,0,1.39.46,4.81,4.81,0,0,0,.77-.06c.25,0,.5-.1.77-.16v.69a6,6,0,0,1-1.66.21,3,3,0,0,1-2.09-.65,2.34,2.34,0,0,1-.73-1.86,2.46,2.46,0,0,1,.35-1.34,2.29,2.29,0,0,1,1-.88,3.79,3.79,0,0,1,1.57-.3,4.79,4.79,0,0,1,1.76.31l-.36.67a6.56,6.56,0,0,0-.67-.21A2.94,2.94,0,0,0,229.92,198Z" transform="translate(-171.61 -197.35)"/><path class="b" d="M236.65,202.33,236,201h-2.38l-.6,1.36H232l2.32-4.92h1.1l2.33,4.92Zm-.89-2.05-.58-1.34-.18-.42c-.07-.19-.13-.33-.15-.42a7,7,0,0,1-.34.9l-.56,1.28Z" transform="translate(-171.61 -197.35)"/>
   <path class="b" d="M241.23,202.33l-1.8-4.1h0c0,.61.07,1.18.07,1.71v2.39h-.92v-4.9H240l1.72,3.9h0l1.77-3.9h1.44v4.9h-1V199.9c0-.24,0-.56,0-1s0-.63,0-.71h0l-1.86,4.09Z" transform="translate(-171.61 -197.35)"/><path class="b" d="M252.08,199.87a2.35,2.35,0,0,1-.75,1.86,3.18,3.18,0,0,1-2.15.66,3.22,3.22,0,0,1-2.16-.65,2.38,2.38,0,0,1-.75-1.88A2.32,2.32,0,0,1,247,198a3.27,3.27,0,0,1,2.17-.65,3.15,3.15,0,0,1,2.14.66A2.35,2.35,0,0,1,252.08,199.87Zm-4.73,0a1.94,1.94,0,0,0,3.2,1.38,2.29,2.29,0,0,0,0-2.75,1.82,1.82,0,0,0-1.36-.46,1.62,1.62,0,0,0-1.84,1.83Z" transform="translate(-171.61 -197.35)"/><path class="b" d="M257.53,198.91a1.3,1.3,0,0,1-.64,1.17,3.28,3.28,0,0,1-1.81.41h-.65v1.84h-1v-4.9h1.79a3.26,3.26,0,0,1,1.74.37A1.23,1.23,0,0,1,257.53,198.91Zm-3.1.91H255a2.27,2.27,0,0,0,1.15-.22.71.71,0,0,0,.36-.67.69.69,0,0,0-.32-.63,2.06,2.06,0,0,0-1-.2h-.71Z" transform="translate(-171.61 -197.35)"/><path class="b" d="M262.28,202.33h-3.51v-4.9h3.51v.67h-2.5v1.34h2.34v.67h-2.34v1.54h2.5Z" transform="translate(-171.61 -197.35)"/><path class="b" d="M267.31,197.43v.68h-2.67v4.22h-1v-4.9Z" transform="translate(-171.61 -197.35)"/><path class="b" d="M273,197.43l-2,3.48a4,4,0,0,1-.67.93,1.85,1.85,0,0,1-.7.42,3,3,0,0,1-1,.13,3.73,3.73,0,0,1-.91-.1v-.72a2.82,2.82,0,0,0,.87.13,1.3,1.3,0,0,0,.65-.15,1.25,1.25,0,0,0,.47-.53l-2.29-3.59h1.1l1.51,2.45a4,4,0,0,1,.25.47h0a1.61,1.61,0,0,1,.12-.28l1.4-2.64Z" transform="translate(-171.61 -197.35)"/><path class="b" d="M278.52,202.33h-1v-4.22h-1.77c-.22,1.43-.4,2.41-.54,2.92a2,2,0,0,1-.56,1.08,1.44,1.44,0,0,1-1,.29,1.87,1.87,0,0,1-.59-.08v-.67a1.35,1.35,0,0,0,.47.09.55.55,0,0,0,.48-.29,5.11,5.11,0,0,0,.37-1.29c.14-.66.31-1.57.5-2.73h3.62Z" transform="translate(-171.61 -197.35)"/><path class="b" d="M280.16,197.43h.93V200c0,.27,0,.54,0,.81s0,.46,0,.55h0l3.17-3.9h1.18v4.9h-.93V199.8c0-.39,0-.86.08-1.41h0l-3.19,3.94h-1.19Z" transform="translate(-171.61 -197.35)"/><path class="b" d="M291.16,198.91a1.3,1.3,0,0,1-.64,1.17,3.28,3.28,0,0,1-1.81.41h-.64v1.84h-1v-4.9h1.79a3.24,3.24,0,0,1,1.74.37A1.23,1.23,0,0,1,291.16,198.91Zm-3.09.91h.53a2.24,2.24,0,0,0,1.15-.22.72.72,0,0,0,.37-.67.7.7,0,0,0-.33-.63,2.06,2.06,0,0,0-1-.2h-.7Z" transform="translate(-171.61 -197.35)"/><path class="b" d="M297.12,197.43l-1.95,3.48a4,4,0,0,1-.67.93,1.89,1.89,0,0,1-.69.42,3.08,3.08,0,0,1-1,.13,3.73,3.73,0,0,1-.91-.1v-.72a2.82,2.82,0,0,0,.87.13,1.3,1.3,0,0,0,.65-.15,1.25,1.25,0,0,0,.47-.53l-2.29-3.59h1.1l1.51,2.45c.14.24.22.39.26.47h0a1.61,1.61,0,0,1,.12-.28l1.4-2.64Z" transform="translate(-171.61 -197.35)"/><path class="b" d="M301.46,202.33h-3.52v-4.9h3.52v.67H299v1.34h2.34v.67H299v1.54h2.5Z" transform="translate(-171.61 -197.35)"/><path class="b" d="M305.48,202.33l-1.8-4.1h0c.05.61.07,1.18.07,1.71v2.39h-.92v-4.9h1.43l1.72,3.9h0l1.77-3.9h1.44v4.9h-1V199.9c0-.24,0-.56,0-1s0-.63,0-.71h0l-1.86,4.09Z" transform="translate(-171.61 -197.35)"/><path class="b" d="M314.68,202.33l-.62-1.36h-2.38l-.6,1.36H310l2.33-4.92h1.1l2.33,4.92Zm-.89-2.05-.58-1.34c0-.09-.1-.23-.18-.42s-.13-.33-.15-.42a7,7,0,0,1-.34.9l-.56,1.28Z" transform="translate(-171.61 -197.35)"/><path class="b" d="M318.54,200.36l-1.54,2h-1.16l1.75-2.15a1.37,1.37,0,0,1-1.19-1.37,1.14,1.14,0,0,1,.59-1,3.38,3.38,0,0,1,1.74-.35h1.86v4.9h-1v-2Zm1-2.26h-.8a2.19,2.19,0,0,0-1,.18.62.62,0,0,0-.34.58.71.71,0,0,0,.33.62,2,2,0,0,0,1,.22h.77Z" transform="translate(-171.61 -197.35)"/><path class="b" d="M232.57,207.36a2.35,2.35,0,0,1-.75,1.86,3.85,3.85,0,0,1-4.31,0,2.35,2.35,0,0,1-.75-1.87,2.32,2.32,0,0,1,.75-1.86,3.22,3.22,0,0,1,2.17-.65,3.17,3.17,0,0,1,2.14.66A2.35,2.35,0,0,1,232.57,207.36Zm-4.74,0a1.84,1.84,0,1,0,3.66,0A1.9,1.9,0,0,0,231,206a1.84,1.84,0,0,0-1.36-.47,1.65,1.65,0,0,0-1.85,1.84Z" transform="translate(-171.61 -197.35)"/><path class="b" d="M238,206.39a1.3,1.3,0,0,1-.64,1.18,3.37,3.37,0,0,1-1.81.41h-.65v1.83h-1v-4.9h1.79a3.26,3.26,0,0,1,1.74.38A1.22,1.22,0,0,1,238,206.39Zm-3.1.92h.54a2.29,2.29,0,0,0,1.15-.22.79.79,0,0,0,0-1.3,1.94,1.94,0,0,0-1-.21h-.71Z" transform="translate(-171.61 -197.35)"/><path class="b" d="M242.94,204.91v.69h-2.67v4.21h-1v-4.9Z" transform="translate(-171.61 -197.35)"/><path class="b" d="M247.81,209.81l-.62-1.36h-2.38l-.6,1.36h-1.07l2.32-4.92h1.1l2.33,4.92Zm-.89-2.05-.58-1.33-.18-.42c-.07-.2-.13-.34-.15-.43a6.53,6.53,0,0,1-.34.91l-.56,1.27Z" transform="translate(-171.61 -197.35)"/><path class="b" d="M254.6,209.81h-1v-2.2h-2.86v2.2h-1v-4.9h1v2h2.86v-2h1Z" transform="translate(-171.61 -197.35)"/><path class="b" d="M256.24,204.91h.93v2.55q0,.4,0,.81c0,.27,0,.45,0,.55h0l3.17-3.91h1.19v4.9h-.93v-2.52a13,13,0,0,1,.08-1.41h0l-3.18,3.93h-1.19Z" transform="translate(-171.61 -197.35)"/><path class="b" d="M267.06,206.06a.92.92,0,0,1-.4.78,2.15,2.15,0,0,1-1.11.39v0a2.56,2.56,0,0,1,1.24.38.94.94,0,0,1,.43.8,1.2,1.2,0,0,1-.68,1.07,3.87,3.87,0,0,1-1.87.38,6.24,6.24,0,0,1-2-.26v-.7a4.58,4.58,0,0,0,.92.23,5.5,5.5,0,0,0,.94.09c1.09,0,1.63-.28,1.63-.85,0-.26-.16-.45-.49-.59a3.86,3.86,0,0,0-1.45-.2h-.75V207h.7q1.86,0,1.86-.78a.55.55,0,0,0-.32-.49,1.78,1.78,0,0,0-.88-.18,4,4,0,0,0-.86.09,3.57,3.57,0,0,0-.85.32l-.46-.54a4.62,4.62,0,0,1,2.25-.53,3.12,3.12,0,0,1,1.56.33A1,1,0,0,1,267.06,206.06Z" transform="translate(-171.61 -197.35)"/><path class="b" d="M272.32,209.81l-.62-1.36h-2.38l-.6,1.36h-1.08l2.33-4.92h1.1l2.33,4.92Zm-.89-2.05-.58-1.33c-.05-.09-.1-.23-.18-.42s-.13-.34-.15-.43a6.53,6.53,0,0,1-.34.91l-.56,1.27Z" transform="translate(-171.61 -197.35)"/><path class="b" d="M279,209.15h.82v2h-1v-1.36h-4.62v-4.9h1v4.22H278v-4.22h1Z" transform="translate(-171.61 -197.35)"/><path class="b" d="M280.81,204.91h.93v2.55c0,.27,0,.54,0,.81s0,.45,0,.55h0l3.17-3.91h1.19v4.9h-.94v-2.52c0-.39,0-.86.08-1.41h0L282,209.81h-1.19Z" transform="translate(-171.61 -197.35)"/><path class="b" d="M289.67,207.85l-1.54,2H287l1.75-2.14a1.38,1.38,0,0,1-1.19-1.37,1.14,1.14,0,0,1,.59-1,3.37,3.37,0,0,1,1.74-.36h1.86v4.9h-1v-2Zm1-2.27h-.81a2.17,2.17,0,0,0-1,.18.62.62,0,0,0-.34.59.69.69,0,0,0,.33.61,1.85,1.85,0,0,0,1,.23h.77Z" transform="translate(-171.61 -197.35)"/></svg>
